<svg xmlns="http://www.w3.org/2000/svg" width="85" height="84" xmlns:xlink="http://www.w3.org/1999/xlink"><defs><path id="b" d="M47.08 78.23l-7.988 9.005L35.16 75.86l-10.827 5.262.72-12.015-12.015.72L18.3 59 6.924 55.068l9.004-7.987-9.004-7.988L18.3 35.16l-5.262-10.827 12.014.72-.72-12.015L35.16 18.3 39.09 6.924l7.988 9.004 7.987-9.004L59 18.3l10.826-5.262-.72 12.014 12.016-.72L75.86 35.16l11.375 3.932-9.004 7.988 9.005 7.987L75.86 59l5.262 10.826-12.015-.72.72 12.016L59 75.86l-3.933 11.375z"/><filter id="a" width="200%" height="200%" x="-50%" y="-50%" filterUnits="objectBoundingBox"><feOffset dx=".3" dy=".8" in="SourceAlpha" result="shadowOffsetOuter1"/><feGaussianBlur stdDeviation=".375" in="shadowOffsetOuter1" result="shadowBlurOuter1"/><feColorMatrix values="0 0 0 0 0 0 0 0 0 0 0 0 0 0 0 0 0 0 0.501896513 0" in="shadowBlurOuter1"/></filter><radialGradient id="c" cy="35.274%" r="80.771%" fx="50%" fy="35.274%"><stop stop-color="#BA2000" stop-opacity="0" offset="0%"/><stop offset="100%"/></radialGradient><radialGradient id="d" cx="45.954%" cy="27.462%" r="84.242%" fx="45.954%" fy="27.462%"><stop stop-color="#FF2C00" offset="0%"/><stop stop-color="#FFF" stop-opacity="0" offset="100%"/></radialGradient><path id="f" d="M47.08 78.23l-7.988 9.005L35.16 75.86l-10.827 5.262.72-12.015-12.015.72L18.3 59 6.924 55.068l9.004-7.987-9.004-7.988L18.3 35.16l-5.262-10.827 12.014.72-.72-12.015L35.16 18.3 39.09 6.924l7.988 9.004 7.987-9.004L59 18.3l10.826-5.262-.72 12.014 12.016-.72L75.86 35.16l11.375 3.932-9.004 7.988 9.005 7.987L75.86 59l5.262 10.826-12.015-.72.72 12.016L59 75.86l-3.933 11.375z"/><filter id="e" width="200%" height="200%" x="-50%" y="-50%" filterUnits="objectBoundingBox"><feOffset dy=".6" in="SourceAlpha" result="shadowOffsetInner1"/><feComposite in="shadowOffsetInner1" in2="SourceAlpha" operator="arithmetic" k2="-1" k3="1" result="shadowInnerInner1"/><feColorMatrix values="0 0 0 0 1 0 0 0 0 1 0 0 0 0 1 0 0 0 0.60399683 0" in="shadowInnerInner1"/></filter></defs><g fill="none" fill-rule="evenodd"><g transform="rotate(11 75.736 18.116)"><use fill="#000" filter="url(#a)" xlink:href="#b"/><use fill="#BA2000" xlink:href="#b"/></g><path fill="url(#c)" fill-opacity=".49" d="M47.08 78.23l-7.988 9.005L35.16 75.86l-10.827 5.262.72-12.015-12.015.72L18.3 59 6.924 55.068l9.004-7.987-9.004-7.988L18.3 35.16l-5.262-10.827 12.014.72-.72-12.015L35.16 18.3 39.09 6.924l7.988 9.004 7.987-9.004L59 18.3l10.826-5.262-.72 12.014 12.016-.72L75.86 35.16l11.375 3.932-9.004 7.988 9.005 7.987L75.86 59l5.262 10.826-12.015-.72.72 12.016L59 75.86l-3.933 11.375" style="mix-blend-mode:darken" transform="rotate(11 75.736 18.116)"/><path fill="url(#d)" fill-opacity=".57" d="M47.08 78.23l-7.988 9.005L35.16 75.86l-10.827 5.262.72-12.015-12.015.72L18.3 59 6.924 55.068l9.004-7.987-9.004-7.988L18.3 35.16l-5.262-10.827 12.014.72-.72-12.015L35.16 18.3 39.09 6.924l7.988 9.004 7.987-9.004L59 18.3l10.826-5.262-.72 12.014 12.016-.72L75.86 35.16l11.375 3.932-9.004 7.988 9.005 7.987L75.86 59l5.262 10.826-12.015-.72.72 12.016L59 75.86l-3.933 11.375" style="mix-blend-mode:overlay" transform="rotate(11 75.736 18.116)"/><use fill="#000" filter="url(#e)" xlink:href="#f" transform="rotate(11 75.736 18.116)"/></g></svg>