<svg xmlns="http://www.w3.org/2000/svg" width="357" height="102" xmlns:xlink="http://www.w3.org/1999/xlink"><defs><path id="b" d="M20.49 28.628v-7.56h12.475v22.24c-6.006.965-10.878 1.448-14.616 1.448-6.68 0-11.267-1.785-13.767-5.355-2.5-3.57-3.748-9.24-3.748-17.01 0-7.77 1.302-13.376 3.906-16.82C7.346 2.126 11.777.404 18.035.404c3.906 0 8.127.44 12.663 1.323l2.268.44-.252 6.742c-5.04-.547-9.166-.82-12.38-.82-3.213 0-5.47.378-6.772 1.134-1.3.756-2.256 2.152-2.866 4.19-.61 2.037-.913 5.522-.913 10.458 0 4.935.61 8.39 1.828 10.363 1.218 1.974 3.738 2.96 7.56 2.96l5.23-.25v-8.317H20.49zM39.186 44V1.16h27.72v7.56H47.88v10.017h15.245v7.434H47.88v10.27h19.025V44h-27.72zm31.08 0l9.64-42.84H96.41L106.05 44h-8.694l-1.7-7.75H80.66L78.96 44h-8.694zm16.38-35.658L82.3 28.692h11.717L89.67 8.34h-3.024zm31.862 21.294V44h-8.694V1.16h16.632c10.08 0 15.12 4.704 15.12 14.112 0 5.586-2.1 9.702-6.3 12.348l6.11 16.38h-9.512l-4.977-14.364h-8.38zm12.663-9.324c1.008-1.26 1.512-2.92 1.512-4.977 0-2.058-.535-3.696-1.606-4.914-1.072-1.217-2.615-1.826-4.63-1.826h-7.94v13.608h8.065c2.06 0 3.592-.63 4.6-1.89zM173.7 7.964c-4.578 0-6.867 1.512-6.867 4.536 0 1.344.567 2.373 1.7 3.087 1.135.714 3.79 1.743 7.97 3.087s7.11 2.866 8.79 4.567c1.68 1.703 2.52 4.317 2.52 7.845 0 4.494-1.366 7.896-4.096 10.206-2.73 2.31-6.3 3.466-10.71 3.466-3.276 0-7.287-.504-12.033-1.512l-2.268-.44.882-6.742c5.628.756 9.933 1.134 12.915 1.134 4.452 0 6.678-1.848 6.678-5.544 0-1.344-.513-2.394-1.543-3.15-1.03-.756-3.076-1.575-6.142-2.457-4.872-1.386-8.305-3.034-10.3-4.946-1.996-1.912-2.993-4.568-2.993-7.97 0-4.284 1.302-7.476 3.906-9.576 2.604-2.1 6.174-3.15 10.71-3.15 3.108 0 7.056.42 11.844 1.26l2.268.44-.693 6.868c-5.922-.672-10.1-1.008-12.537-1.008zm46.288 35.343c-4.452.966-8.463 1.45-12.033 1.45-3.57 0-6.426-.442-8.568-1.324-2.142-.882-3.822-2.29-5.04-4.22-1.218-1.933-2.058-4.2-2.52-6.805-.462-2.604-.693-5.88-.693-9.828 0-8.274 1.165-14.038 3.497-17.293 2.332-3.256 6.626-4.883 12.884-4.883 3.612 0 7.79.567 12.537 1.7l-.25 6.93c-4.16-.63-7.613-.944-10.365-.944-2.75 0-4.714.367-5.89 1.103-1.176.735-2.047 2.13-2.614 4.19-.567 2.057-.85 5.564-.85 10.52 0 4.956.577 8.39 1.732 10.3 1.156 1.912 3.465 2.867 6.93 2.867 3.466 0 7.15-.294 11.057-.882l.188 7.12zm20.584-6.11c3.402 0 5.722-1.103 6.962-3.31 1.24-2.204 1.858-5.9 1.858-11.087 0-5.187-.63-8.956-1.89-11.308-1.26-2.352-3.57-3.528-6.93-3.528s-5.67 1.176-6.93 3.528c-1.26 2.352-1.89 6.12-1.89 11.308s.62 8.883 1.858 11.088c1.24 2.206 3.56 3.308 6.962 3.308zm0 7.56c-6.51 0-11.098-1.775-13.766-5.325-2.667-3.55-4-9.103-4-16.663 0-7.56 1.333-13.178 4-16.854 2.668-3.675 7.256-5.512 13.766-5.512s11.098 1.837 13.766 5.513c2.667 3.675 4 9.292 4 16.852 0 7.56-1.333 13.113-4 16.662-2.668 3.55-7.256 5.324-13.766 5.324zm31.054-15.12V44h-8.694V1.16h16.632c10.08 0 15.12 4.704 15.12 14.112 0 5.586-2.1 9.702-6.3 12.348l6.11 16.38h-9.512l-4.977-14.364h-8.38zm12.663-9.325c1.007-1.26 1.51-2.92 1.51-4.977 0-2.058-.534-3.696-1.606-4.914-1.07-1.217-2.614-1.826-4.63-1.826h-7.938v13.608h8.064c2.058 0 3.59-.63 4.6-1.89zM300.02 44V1.16h27.72v7.56h-19.026v10.017h15.246v7.434h-15.246v10.27h19.026V44h-27.72zm52.7-41.14c2.037 1.64 3.055 4.096 3.055 7.372s-.325 5.66-.976 7.15c-.65 1.492-2.026 3.024-4.126 4.6-2.1 1.575-3.423 2.782-3.97 3.622-.545.84-.818 1.764-.818 2.772v1.953h-6.74c-1.303-1.43-1.954-3.34-1.954-5.734 0-1.512 1.333-3.34 4-5.48 2.668-2.143 4.305-3.623 4.914-4.442.61-.82.914-1.817.914-2.993 0-2.477-1.785-3.716-5.355-3.716-2.52 0-5.103.252-7.75.756l-1.322.252-.44-6.363c3.61-1.47 7.433-2.206 11.465-2.206s7.066.82 9.103 2.457zM337.758 44V33.857h9.07V44h-9.07z"/><linearGradient id="c" x1="50%" x2="50%" y1="100%" y2="0%"><stop stop-color="#FFF" stop-opacity=".35" offset="0%"/><stop stop-color="#FFF" offset="100%"/></linearGradient><path id="e" d="M202 9h26V0h-31v6h-2v20h7V9zm-8 15h1v11h-7v-9.2h-16v-10h22V24zM161 4h-2v12h12V5.5h25V0h-35v4zm15 34h1v-3h9v5.7h-8V42h-12.4v-2.5h-.6V37h11v1zm49.8 1.6V43H209v-3.4h-1V39h18v.6h-.2zM234 3h-6v23h9V10.8h24V26h5V1h-32v2zm67 7V4h-33v7h28v7.4h7V10h-2zm51 9.1h2v-4.2h-4v.1h-12v12.9h14v-8.8zM147 9V3h-32v8h28v7.4h7V9h-3zM19 37v-8h-5v11h3v1h17v-4H19zM14 6h27V0H10v4H0v21h14V6zm30-4h30v5H44V2zm7 18h21v4H51v-4zm0 18h23v4H51v-4zM24 23h17v3H24v-3zM85 1.6h18v3H85v-3zm38 17h17v8.2h-17v-8.2zM86 31.7h16v2H86v-2zM343 36h11v2h-11v-2zm-49-5h7v16h-7V31zm10-27h31v1h-31V4zm10 17h18v2h-18v-2zm0 18h21v1h-21v-1zm23-38h24v5h-24V1zm19 5h8v7.5h-8V6zM237 26h20v16h-20V26zm39-7.2h17v7.5h-17v-7.5z"/><path id="g" d="M202 9h26V0h-31v6h-2v20h7V9zm-8 15h1v11h-7v-9.2h-16v-10h22V24zM161 4h-2v12h12V5.5h25V0h-35v4zm15 34h1v-3h9v5.7h-8V42h-12.4v-2.5h-.6V37h11v1zm49.8 1.6V43H209v-3.4h-1V39h18v.6h-.2zM234 3h-6v23h9V10.8h24V26h5V1h-32v2zm67 7V4h-33v7h28v7.4h7V10h-2zm51 9.1h2v-4.2h-4v.1h-12v12.9h14v-8.8zM147 9V3h-32v8h28v7.4h7V9h-3zM19 37v-8h-5v11h3v1h17v-4H19zM14 6h27V0H10v4H0v21h14V6zm30-4h30v5H44V2zm7 18h21v4H51v-4zm0 18h23v4H51v-4zM24 23h17v3H24v-3zM85 1.6h18v3H85v-3zm38 17h17v8.2h-17v-8.2zM86 31.7h16v2H86v-2zM343 36h11v2h-11v-2zm-49-5h7v16h-7V31zm10-27h31v1h-31V4zm10 17h18v2h-18v-2zm0 18h21v1h-21v-1zm23-38h24v5h-24V1zm19 5h8v7.5h-8V6zM237 26h20v16h-20V26zm39-7.2h17v7.5h-17v-7.5z"/><path id="i" d="M141.65 35.358c.732 2.275 1.963 4.333 3.694 6.173 2.187 2.314 4.656 3.663 7.406 4.048.48.073.948.11 1.406.11 2.323 0 4.386-.83 6.188-2.485 1.51-1.396 2.65-3.16 3.422-5.297.76-2.104 1.14-4.552 1.14-7.343 0-.428-.01-.865-.03-1.313-.074-1.97-.412-4.875-1.017-8.72l-.58-3.655c-.56-3.698-1.01-6.47-1.343-8.313l-.125-.718c-.218-1.313-.484-2.193-.796-2.64-.47-.688-1.35-1.157-2.64-1.407l-.08-.016-.077.033c-1.012.437-1.767 1.328-2.267 2.67-.292.793-.573 2.085-.844 3.876-.22 1.48-.428 2.473-.626 2.984-.864 2.25-1.812 4.02-2.843 5.312-.385.48-.91 1.005-1.577 1.578-.844.72-1.47 1.078-1.875 1.078-.105 0-.183-.026-.235-.078-.177-.166-.266-.463-.266-.89 0-.927.428-2.464 1.282-4.61.176-.427.29-.718.343-.875.062-.21.223-.6.484-1.172.542-1.198.875-2.105 1-2.72.062-.29.094-.562.094-.812 0-.646-.208-1.146-.624-1.5-.48-.427-.964-.64-1.453-.64-.646 0-1.303.37-1.97 1.11-1.093 1.197-2.103 3.24-3.03 6.124-.75 2.333-1.125 4.042-1.125 5.125 0 .125.005.24.015.344.136 1.436.662 2.572 1.578 3.405.928.844 2.12 1.266 3.58 1.266 1.447 0 2.87-.416 4.265-1.25 1.844-1.093 3.27-2.562 4.28-4.406.043-.073.126-.25.25-.53.678-1.438 1.184-2.293 1.517-2.563.146.98.41 2.46.797 4.438.75 3.802 1.124 6.906 1.124 9.313 0 .907-.052 1.714-.156 2.422-.303 2.01-.71 3.594-1.22 4.75-.708 1.563-1.713 2.693-3.015 3.39-.635.334-1.286.5-1.953.5-1.635 0-3.245-.92-4.828-2.764-1.333-1.573-2.188-3.13-2.563-4.672-.042-.136-.1-.485-.173-1.047-.218-1.564-.447-2.71-.687-3.44-.438-1.29-1.03-1.936-1.78-1.936-.335 0-.69.13-1.064.39-.807.574-1.322 1.38-1.545 2.418-2.385-8.712-4.25-15.205-5.598-19.48-.927-2.927-1.99-5.042-3.187-6.344h-.172c-1.677 0-2.797.6-3.36 1.797-.218.448-.494 1.797-.827 4.047-.24 1.604-.73 4.38-1.47 8.328-.853 4.594-1.395 7.562-1.624 8.906-.167-.864-.37-2.38-.61-4.547-.28-2.584-.505-4.443-.67-5.58-.69-4.686-1.74-7.81-3.158-9.374-.646-.708-1.328-1.062-2.047-1.062-.395 0-.802.11-1.218.328-1.033.53-1.824 1.474-2.376 2.828-.282.688-.73 2.39-1.344 5.11l-1.563 6.984v-.016c-.948 3.875-1.42 6.85-1.42 8.922 0 .646.045 1.203.14 1.672.218 1.156.718 2.073 1.5 2.75.332.28.635.422.905.422.46 0 .844-.38 1.157-1.14.582-1.45 1.202-4.87 1.858-10.267.656-5.458 1.292-9 1.906-10.625.188.448.964 4.58 2.328 12.39 1.115 6.418 2.464 9.99 4.047 10.72.156.073.312.11.468.11.73 0 1.49-.813 2.28-2.438.814-1.667 1.605-4.084 2.376-7.25 1.52-6.23 2.302-11.224 2.344-14.985.323.99.802 2.916 1.438 5.78.822 3.678 1.41 6.204 1.765 7.58 1.616 6.353 3.24 9.853 4.876 10.5.25.093.474.14.672.14.58 0 .954-.418 1.12-1.252zM45.115 12.486c-.36.058-.753.115-1.18.17-.088.01-.22.016-.396.016-.176 0-.4-.005-.674-.015-.752-.03-1.245-.044-1.48-.044-1.278 0-2.04.18-2.284.542-.528.772-.79 2.183-.79 4.234v.116c.008.683.047 1.528.116 2.534.088 1.338.137 2.026.146 2.065.244 5.274.38 8.467.41 9.58 0 .225.03.606.088 1.143.05.567.08.99.088 1.275v.336c0 .878-.136 1.533-.41 1.962-.342.518-1.03.81-2.065.88h-.074c-.516 0-.897-.426-1.14-1.275-.03-.088-.148-.786-.353-2.095-.41-2.52-.644-5.976-.703-10.37-.01-.616-.014-1.33-.014-2.14 0-1.894.024-4.316.073-7.265v-.015c0-.43-.41-.718-1.23-.864-.264-.04-.81-.07-1.64-.088h-.075c-.332 0-.942.054-1.83.16-1.182.148-2.056.24-2.623.28-.246.018-.483.03-.71.037-.254 7.894-.58 13.21-.974 15.947-.687 4.823-1.86 7.234-3.515 7.234-.875 0-1.89-.682-3.047-2.047-1.417-1.676-2.786-4.15-4.11-7.42-1.635-4.032-2.786-6.62-3.452-7.766v.015c0 .676-.427 4.65-1.282 11.92-.312 2.626-.724 4.31-1.234 5.048-.333.47-.724.703-1.172.703-.448 0-.953-.233-1.516-.702-.927-.78-1.552-1.646-1.875-2.594C2.625 29.4 1.558 25.828.985 23.266.328 20.35 0 17.708 0 15.344c0-1.104.073-2.146.22-3.125.124-.887.358-1.642.702-2.267.448-.864 1.02-1.297 1.72-1.297h.077c.915.032 1.488.308 1.717.828.105.24.157.782.157 1.625v.437c-.01.573-.016 1.13-.016 1.672 0 5.165.406 8.895 1.22 11.186.332-.916.603-2.16.81-3.734.303-2.344.47-3.615.5-3.813.418-2.22.684-3.537.798-3.954.5-1.698 1.198-2.786 2.094-3.265.302-.166.594-.25.875-.25 1.52 0 2.9 2.23 4.14 6.688 1.563 5.604 3.438 10.386 5.626 14.344 1.063-3.22 1.594-7.88 1.594-13.985 0-1.52-.03-3.135-.093-4.843-.104-2.75-.322-5.344-.656-7.78-.062-.418-.093-.788-.093-1.11 0-.668.126-1.126.376-1.376.145-.146.432-.333.86-.562C23.187.464 23.63.208 23.952 0c1.292 1.354 2.083 3.307 2.375 5.86.094.74.14 1.827.14 3.265v.157c.97-.168 2.028-.26 3.17-.272 2.09-.03 5.054-.215 8.892-.557 2.63-.238 4.793-.41 6.488-.515.44-.23.96-.445 1.56-.64.917-.303 1.563-.584 1.938-.845.917-.635 1.682-.953 2.297-.953.052 0 .104.005.156.016.593.052 1.312.448 2.155 1.187.313.26.73.417 1.25.47.094.01.198.014.313.014.77 0 1.97-.213 3.594-.64 1.5-.375 2.588-.563 3.265-.563.094 0 .182.006.266.016 1.094.104 1.73.516 1.906 1.234.04.115.062.24.062.375 0 .05-.006.104-.016.156-.02.27-.115.562-.28.875-.272.5-.678.938-1.22 1.313-1.302.886-3.292 1.333-5.97 1.344-.197-.01-.56-.037-1.093-.078-.562-.053-1.073-.08-1.53-.08-1.522 0-2.412.27-2.673.813-.312.615-.53 1.6-.656 2.953-.03.313-.057.646-.078 1-.01.22-.02.386-.03.5.394-.062.816-.135 1.264-.218 3.094-.563 5.558-.844 7.39-.844.49 0 .933.02 1.33.062.968.094 1.858.28 2.67.563.668.238 1 .577 1 1.014v.078l-.015.032c-.073.594-.734 1.234-1.984 1.922-1.103.604-1.942.92-2.515.953-.323.02-.745.03-1.265.03-.386 0-.823-.005-1.313-.016-.292-.01-.573-.015-.844-.015-1.916 0-3.35.16-4.296.483-1.157.386-1.917 1.625-2.282 3.72-.062.384-.114.78-.156 1.186-.053.55-.08 1.12-.08 1.703 0 .77.048 1.572.142 2.406.03.228.14.712.328 1.452.395 1.49.593 2.693.593 3.61 0 .187-.01.36-.03.515-.043.53-.178.932-.407 1.203-.365.438-.9.656-1.61.656h-.14l-.125-.015c-1.49-.145-2.426-1.333-2.812-3.562-.114-.698-.17-1.562-.17-2.594 0-.77.03-1.64.092-2.61l.016-.343c.03-.415.083-1.103.156-2.06.115-1.397.182-2.46.203-3.19v-.014c0-.21-.28-.438-.843-.688-.834-.344-1.25-.78-1.25-1.312v-.094l.015-.078c.073-.448.438-.985 1.094-1.61.438-.416.71-.74.813-.968.23-.47.39-1.172.485-2.11.03-.323.052-.666.062-1.03.01-.564.037-1.037.078-1.423.02-.26.052-.48.094-.656l-.562-.03-.244-.03zm28.942 19.03c.187 1.177.28 2.15.28 2.922 0 .343-.02.65-.062.92-.093.626-.36 1.11-.797 1.455-.386.312-.824.468-1.313.468-.51 0-.97-.155-1.375-.468-.417-.312-.703-.718-.86-1.218-.27-.896-.406-2.177-.406-3.844 0-.458.01-.943.032-1.453l.03-.875c.01-.458.016-.964.016-1.516 0-2.29-.104-5.38-.312-9.265l-.063-1.42c-.01-.23-.063-.74-.157-1.532-.23-2.063-.344-3.84-.344-5.33 0-2.665.37-4.415 1.11-5.25.426-.467.957-.702 1.593-.702h.11c.895 0 1.55.245 1.968.735.324.396.485 1.042.485 1.938 0 .583-.068 1.276-.203 2.078-.073.396-.12.672-.14.828-.178 1.27-.266 2.948-.266 5.032 0 1.604.052 3.442.156 5.515.094 1.98.15 3.444.172 4.392 0 .364.005.823.015 1.375 0 2.01.072 3.51.218 4.5l.11.72zm21.084-10.43c3.39 1.15 5.676 2.194 6.857 3.132 1.08.858 1.62 1.887 1.62 3.088 0 .323-.042.66-.123 1.014-.413 1.807-1.826 3.573-4.238 5.298-2.564 1.827-5.455 2.982-8.674 3.466-.898.132-1.78.197-2.65.197-2.48 0-4.838-.55-7.068-1.65-3.118-1.543-4.692-3.616-4.723-6.22v-.15c0-2.272.707-3.64 2.12-4.103.262-.08.52-.12.772-.12.262 0 .52.044.772.135.483.182.765.45.846.802.01.07.015.157.015.257 0 .183-.02.415-.06.698-.1.575-.15.98-.15 1.21v.137c0 1.02.423 1.862 1.27 2.528 1.767 1.382 3.856 2.073 6.267 2.073.586 0 1.186-.04 1.802-.12 3.258-.435 6.074-1.867 8.445-4.3.293-.302.44-.585.44-.847 0-.193-.077-.374-.228-.546-.333-.353-1.065-.722-2.195-1.105-.575-.193-1.907-.576-3.996-1.15-2.08-.587-3.804-1.106-5.177-1.56-4.663-1.575-7.816-2.856-9.46-3.845-2.413-1.463-3.644-3.234-3.695-5.313v-.076c0-1.958 1.494-3.48 4.48-4.57 2.1-.758 4.537-1.207 7.312-1.348.293-.02.585-.03.878-.03 1.897 0 3.794.337 5.69 1.014 2.292.817 3.437 1.83 3.437 3.042 0 .12-.01.242-.03.363-.15.818-.358 1.368-.62 1.65-.172.192-.41.288-.712.288-.09 0-.192-.01-.303-.03-.242-.04-.777-.207-1.604-.5-.888-.323-1.675-.555-2.362-.696-1.018-.223-2.148-.334-3.39-.334-.958 0-1.977.065-3.057.197-2.442.282-3.703.7-3.784 1.256-.01.07-.016.14-.016.21 0 1.232 1.69 2.413 5.07 3.543 1 .333 2.695.827 5.087 1.483 2.332.656 4.042 1.166 5.132 1.53z"/><linearGradient id="j" x1="50%" x2="50%" y1="0%" y2="100%"><stop stop-color="#FFF" offset="0%"/><stop offset="100%"/></linearGradient><path id="a" d="M141.65 35.358c.732 2.275 1.963 4.333 3.694 6.173 2.187 2.314 4.656 3.663 7.406 4.048.48.073.948.11 1.406.11 2.323 0 4.386-.83 6.188-2.485 1.51-1.396 2.65-3.16 3.422-5.297.76-2.104 1.14-4.552 1.14-7.343 0-.428-.01-.865-.03-1.313-.074-1.97-.412-4.875-1.017-8.72l-.58-3.655c-.56-3.698-1.01-6.47-1.343-8.313l-.125-.718c-.218-1.313-.484-2.193-.796-2.64-.47-.688-1.35-1.157-2.64-1.407l-.08-.016-.077.033c-1.012.437-1.767 1.328-2.267 2.67-.292.793-.573 2.085-.844 3.876-.22 1.48-.428 2.473-.626 2.984-.864 2.25-1.812 4.02-2.843 5.312-.385.48-.91 1.005-1.577 1.578-.844.72-1.47 1.078-1.875 1.078-.105 0-.183-.026-.235-.078-.177-.166-.266-.463-.266-.89 0-.927.428-2.464 1.282-4.61.176-.427.29-.718.343-.875.062-.21.223-.6.484-1.172.542-1.198.875-2.105 1-2.72.062-.29.094-.562.094-.812 0-.646-.208-1.146-.624-1.5-.48-.427-.964-.64-1.453-.64-.646 0-1.303.37-1.97 1.11-1.093 1.197-2.103 3.24-3.03 6.124-.75 2.333-1.125 4.042-1.125 5.125 0 .125.005.24.015.344.136 1.436.662 2.572 1.578 3.405.928.844 2.12 1.266 3.58 1.266 1.447 0 2.87-.416 4.265-1.25 1.844-1.093 3.27-2.562 4.28-4.406.043-.073.126-.25.25-.53.678-1.438 1.184-2.293 1.517-2.563.146.98.41 2.46.797 4.438.75 3.802 1.124 6.906 1.124 9.313 0 .907-.052 1.714-.156 2.422-.303 2.01-.71 3.594-1.22 4.75-.708 1.563-1.713 2.693-3.015 3.39-.635.334-1.286.5-1.953.5-1.635 0-3.245-.92-4.828-2.764-1.333-1.573-2.188-3.13-2.563-4.672-.042-.136-.1-.485-.173-1.047-.218-1.564-.447-2.71-.687-3.44-.438-1.29-1.03-1.936-1.78-1.936-.335 0-.69.13-1.064.39-.807.574-1.322 1.38-1.545 2.418-2.385-8.712-4.25-15.205-5.598-19.48-.927-2.927-1.99-5.042-3.187-6.344h-.172c-1.677 0-2.797.6-3.36 1.797-.218.448-.494 1.797-.827 4.047-.24 1.604-.73 4.38-1.47 8.328-.853 4.594-1.395 7.562-1.624 8.906-.167-.864-.37-2.38-.61-4.547-.28-2.584-.505-4.443-.67-5.58-.69-4.686-1.74-7.81-3.158-9.374-.646-.708-1.328-1.062-2.047-1.062-.395 0-.802.11-1.218.328-1.033.53-1.824 1.474-2.376 2.828-.282.688-.73 2.39-1.344 5.11l-1.563 6.984v-.016c-.948 3.875-1.42 6.85-1.42 8.922 0 .646.045 1.203.14 1.672.218 1.156.718 2.073 1.5 2.75.332.28.635.422.905.422.46 0 .844-.38 1.157-1.14.582-1.45 1.202-4.87 1.858-10.267.656-5.458 1.292-9 1.906-10.625.188.448.964 4.58 2.328 12.39 1.115 6.418 2.464 9.99 4.047 10.72.156.073.312.11.468.11.73 0 1.49-.813 2.28-2.438.814-1.667 1.605-4.084 2.376-7.25 1.52-6.23 2.302-11.224 2.344-14.985.323.99.802 2.916 1.438 5.78.822 3.678 1.41 6.204 1.765 7.58 1.616 6.353 3.24 9.853 4.876 10.5.25.093.474.14.672.14.58 0 .954-.418 1.12-1.252zM45.115 12.486c-.36.058-.753.115-1.18.17-.088.01-.22.016-.396.016-.176 0-.4-.005-.674-.015-.752-.03-1.245-.044-1.48-.044-1.278 0-2.04.18-2.284.542-.528.772-.79 2.183-.79 4.234v.116c.008.683.047 1.528.116 2.534.088 1.338.137 2.026.146 2.065.244 5.274.38 8.467.41 9.58 0 .225.03.606.088 1.143.05.567.08.99.088 1.275v.336c0 .878-.136 1.533-.41 1.962-.342.518-1.03.81-2.065.88h-.074c-.516 0-.897-.426-1.14-1.275-.03-.088-.148-.786-.353-2.095-.41-2.52-.644-5.976-.703-10.37-.01-.616-.014-1.33-.014-2.14 0-1.894.024-4.316.073-7.265v-.015c0-.43-.41-.718-1.23-.864-.264-.04-.81-.07-1.64-.088h-.075c-.332 0-.942.054-1.83.16-1.182.148-2.056.24-2.623.28-.246.018-.483.03-.71.037-.254 7.894-.58 13.21-.974 15.947-.687 4.823-1.86 7.234-3.515 7.234-.875 0-1.89-.682-3.047-2.047-1.417-1.676-2.786-4.15-4.11-7.42-1.635-4.032-2.786-6.62-3.452-7.766v.015c0 .676-.427 4.65-1.282 11.92-.312 2.626-.724 4.31-1.234 5.048-.333.47-.724.703-1.172.703-.448 0-.953-.233-1.516-.702-.927-.78-1.552-1.646-1.875-2.594C2.625 29.4 1.558 25.828.985 23.266.328 20.35 0 17.708 0 15.344c0-1.104.073-2.146.22-3.125.124-.887.358-1.642.702-2.267.448-.864 1.02-1.297 1.72-1.297h.077c.915.032 1.488.308 1.717.828.105.24.157.782.157 1.625v.437c-.01.573-.016 1.13-.016 1.672 0 5.165.406 8.895 1.22 11.186.332-.916.603-2.16.81-3.734.303-2.344.47-3.615.5-3.813.418-2.22.684-3.537.798-3.954.5-1.698 1.198-2.786 2.094-3.265.302-.166.594-.25.875-.25 1.52 0 2.9 2.23 4.14 6.688 1.563 5.604 3.438 10.386 5.626 14.344 1.063-3.22 1.594-7.88 1.594-13.985 0-1.52-.03-3.135-.093-4.843-.104-2.75-.322-5.344-.656-7.78-.062-.418-.093-.788-.093-1.11 0-.668.126-1.126.376-1.376.145-.146.432-.333.86-.562C23.187.464 23.63.208 23.952 0c1.292 1.354 2.083 3.307 2.375 5.86.094.74.14 1.827.14 3.265v.157c.97-.168 2.028-.26 3.17-.272 2.09-.03 5.054-.215 8.892-.557 2.63-.238 4.793-.41 6.488-.515.44-.23.96-.445 1.56-.64.917-.303 1.563-.584 1.938-.845.917-.635 1.682-.953 2.297-.953.052 0 .104.005.156.016.593.052 1.312.448 2.155 1.187.313.26.73.417 1.25.47.094.01.198.014.313.014.77 0 1.97-.213 3.594-.64 1.5-.375 2.588-.563 3.265-.563.094 0 .182.006.266.016 1.094.104 1.73.516 1.906 1.234.04.115.062.24.062.375 0 .05-.006.104-.016.156-.02.27-.115.562-.28.875-.272.5-.678.938-1.22 1.313-1.302.886-3.292 1.333-5.97 1.344-.197-.01-.56-.037-1.093-.078-.562-.053-1.073-.08-1.53-.08-1.522 0-2.412.27-2.673.813-.312.615-.53 1.6-.656 2.953-.03.313-.057.646-.078 1-.01.22-.02.386-.03.5.394-.062.816-.135 1.264-.218 3.094-.563 5.558-.844 7.39-.844.49 0 .933.02 1.33.062.968.094 1.858.28 2.67.563.668.238 1 .577 1 1.014v.078l-.015.032c-.073.594-.734 1.234-1.984 1.922-1.103.604-1.942.92-2.515.953-.323.02-.745.03-1.265.03-.386 0-.823-.005-1.313-.016-.292-.01-.573-.015-.844-.015-1.916 0-3.35.16-4.296.483-1.157.386-1.917 1.625-2.282 3.72-.062.384-.114.78-.156 1.186-.053.55-.08 1.12-.08 1.703 0 .77.048 1.572.142 2.406.03.228.14.712.328 1.452.395 1.49.593 2.693.593 3.61 0 .187-.01.36-.03.515-.043.53-.178.932-.407 1.203-.365.438-.9.656-1.61.656h-.14l-.125-.015c-1.49-.145-2.426-1.333-2.812-3.562-.114-.698-.17-1.562-.17-2.594 0-.77.03-1.64.092-2.61l.016-.343c.03-.415.083-1.103.156-2.06.115-1.397.182-2.46.203-3.19v-.014c0-.21-.28-.438-.843-.688-.834-.344-1.25-.78-1.25-1.312v-.094l.015-.078c.073-.448.438-.985 1.094-1.61.438-.416.71-.74.813-.968.23-.47.39-1.172.485-2.11.03-.323.052-.666.062-1.03.01-.564.037-1.037.078-1.423.02-.26.052-.48.094-.656l-.562-.03-.244-.03zm28.942 19.03c.187 1.177.28 2.15.28 2.922 0 .343-.02.65-.062.92-.093.626-.36 1.11-.797 1.455-.386.312-.824.468-1.313.468-.51 0-.97-.155-1.375-.468-.417-.312-.703-.718-.86-1.218-.27-.896-.406-2.177-.406-3.844 0-.458.01-.943.032-1.453l.03-.875c.01-.458.016-.964.016-1.516 0-2.29-.104-5.38-.312-9.265l-.063-1.42c-.01-.23-.063-.74-.157-1.532-.23-2.063-.344-3.84-.344-5.33 0-2.665.37-4.415 1.11-5.25.426-.467.957-.702 1.593-.702h.11c.895 0 1.55.245 1.968.735.324.396.485 1.042.485 1.938 0 .583-.068 1.276-.203 2.078-.073.396-.12.672-.14.828-.178 1.27-.266 2.948-.266 5.032 0 1.604.052 3.442.156 5.515.094 1.98.15 3.444.172 4.392 0 .364.005.823.015 1.375 0 2.01.072 3.51.218 4.5l.11.72zm21.084-10.43c3.39 1.15 5.676 2.194 6.857 3.132 1.08.858 1.62 1.887 1.62 3.088 0 .323-.042.66-.123 1.014-.413 1.807-1.826 3.573-4.238 5.298-2.564 1.827-5.455 2.982-8.674 3.466-.898.132-1.78.197-2.65.197-2.48 0-4.838-.55-7.068-1.65-3.118-1.543-4.692-3.616-4.723-6.22v-.15c0-2.272.707-3.64 2.12-4.103.262-.08.52-.12.772-.12.262 0 .52.044.772.135.483.182.765.45.846.802.01.07.015.157.015.257 0 .183-.02.415-.06.698-.1.575-.15.98-.15 1.21v.137c0 1.02.423 1.862 1.27 2.528 1.767 1.382 3.856 2.073 6.267 2.073.586 0 1.186-.04 1.802-.12 3.258-.435 6.074-1.867 8.445-4.3.293-.302.44-.585.44-.847 0-.193-.077-.374-.228-.546-.333-.353-1.065-.722-2.195-1.105-.575-.193-1.907-.576-3.996-1.15-2.08-.587-3.804-1.106-5.177-1.56-4.663-1.575-7.816-2.856-9.46-3.845-2.413-1.463-3.644-3.234-3.695-5.313v-.076c0-1.958 1.494-3.48 4.48-4.57 2.1-.758 4.537-1.207 7.312-1.348.293-.02.585-.03.878-.03 1.897 0 3.794.337 5.69 1.014 2.292.817 3.437 1.83 3.437 3.042 0 .12-.01.242-.03.363-.15.818-.358 1.368-.62 1.65-.172.192-.41.288-.712.288-.09 0-.192-.01-.303-.03-.242-.04-.777-.207-1.604-.5-.888-.323-1.675-.555-2.362-.696-1.018-.223-2.148-.334-3.39-.334-.958 0-1.977.065-3.057.197-2.442.282-3.703.7-3.784 1.256-.01.07-.016.14-.016.21 0 1.232 1.69 2.413 5.07 3.543 1 .333 2.695.827 5.087 1.483 2.332.656 4.042 1.166 5.132 1.53z"/><mask id="l" width="167.206" height="47.987" x="-1.15" y="-1.15"><path fill="#fff" d="M-1.15-1.15h167.206v47.987H-1.15z"/><use xlink:href="#a"/></mask></defs><g fill="none" fill-rule="evenodd"><g><g transform="translate(1 56.7)"><mask id="d" fill="#fff"><use xlink:href="#b"/></mask><use fill="#FF9C3E" xlink:href="#b"/><path fill="url(#c)" fill-opacity=".79" d="M0 .404h358V33H0z" style="mix-blend-mode:overlay" mask="url(#d)"/><g style="mix-blend-mode:darken" mask="url(#d)"><g transform="translate(-6 -3)"><mask id="f" fill="#fff"><use xlink:href="#e"/></mask><path fill="#FFC457" d="M26.49 31.628v-7.56h12.475v22.24c-6.006.965-10.878 1.448-14.616 1.448-6.68 0-11.267-1.785-13.767-5.355-2.5-3.57-3.748-9.24-3.748-17.01 0-7.77 1.302-13.376 3.906-16.82 2.605-3.444 7.036-5.166 13.294-5.166 3.906 0 8.127.44 12.663 1.323l2.268.44-.252 6.742c-5.04-.547-9.166-.82-12.38-.82-3.213 0-5.47.378-6.772 1.134-1.3.756-2.256 2.152-2.865 4.19-.61 2.037-.914 5.522-.914 10.457 0 4.937.61 8.39 1.828 10.365 1.218 1.974 3.738 2.96 7.56 2.96l5.23-.25v-8.317H26.49zM45.186 47V4.16h27.72v7.56H53.88v10.017h15.245v7.434H53.88v10.27h19.025V47h-27.72zm31.08 0l9.64-42.84h16.506L112.05 47h-8.694l-1.7-7.75H86.66L84.96 47h-8.694zm16.38-35.658L88.3 31.692h11.717L95.67 11.34h-3.024zm31.862 21.294V47h-8.694V4.16h16.632c10.08 0 15.12 4.704 15.12 14.112 0 5.586-2.1 9.702-6.3 12.348l6.11 16.38h-9.512l-4.977-14.364h-8.38zm12.663-9.324c1.008-1.26 1.512-2.92 1.512-4.977 0-2.058-.535-3.696-1.606-4.914-1.072-1.217-2.615-1.826-4.63-1.826h-7.94v13.608h8.065c2.06 0 3.592-.63 4.6-1.89zm42.53-12.348c-4.578 0-6.867 1.512-6.867 4.536 0 1.344.567 2.373 1.7 3.087 1.135.714 3.79 1.743 7.97 3.087s7.11 2.866 8.79 4.567c1.68 1.703 2.52 4.317 2.52 7.845 0 4.494-1.366 7.896-4.096 10.206-2.73 2.31-6.3 3.466-10.71 3.466-3.276 0-7.287-.504-12.033-1.512l-2.268-.44.882-6.742c5.628.756 9.933 1.134 12.915 1.134 4.452 0 6.678-1.848 6.678-5.544 0-1.344-.513-2.394-1.543-3.15-1.03-.756-3.076-1.575-6.142-2.457-4.872-1.386-8.305-3.034-10.3-4.946-1.996-1.912-2.993-4.568-2.993-7.97 0-4.284 1.302-7.476 3.906-9.576 2.604-2.1 6.174-3.15 10.71-3.15 3.108 0 7.056.42 11.844 1.26l2.268.44-.693 6.868c-5.922-.672-10.1-1.008-12.537-1.008zm46.288 35.343c-4.452.966-8.463 1.45-12.033 1.45-3.57 0-6.426-.442-8.568-1.324-2.142-.882-3.822-2.29-5.04-4.22-1.218-1.933-2.058-4.2-2.52-6.805-.462-2.604-.693-5.88-.693-9.828 0-8.274 1.165-14.038 3.497-17.293 2.332-3.256 6.626-4.883 12.884-4.883 3.612 0 7.79.567 12.537 1.7l-.25 6.93c-4.16-.63-7.613-.944-10.365-.944-2.75 0-4.714.367-5.89 1.103-1.176.735-2.047 2.13-2.614 4.19-.567 2.057-.85 5.564-.85 10.52 0 4.956.577 8.39 1.732 10.3 1.156 1.912 3.465 2.867 6.93 2.867 3.466 0 7.15-.294 11.057-.882l.188 7.12zm20.584-6.11c3.402 0 5.722-1.103 6.962-3.31 1.24-2.204 1.858-5.9 1.858-11.087 0-5.187-.63-8.956-1.89-11.308-1.26-2.352-3.57-3.528-6.93-3.528s-5.67 1.176-6.93 3.528c-1.26 2.352-1.89 6.12-1.89 11.308s.62 8.883 1.858 11.088c1.24 2.206 3.56 3.308 6.962 3.308zm0 7.56c-6.51 0-11.098-1.775-13.766-5.325-2.667-3.55-4-9.103-4-16.663 0-7.56 1.333-13.178 4-16.854 2.668-3.675 7.256-5.512 13.766-5.512s11.098 1.837 13.765 5.512c2.668 3.676 4 9.293 4 16.853 0 7.56-1.332 13.113-4 16.662-2.667 3.55-7.255 5.324-13.765 5.324zm31.054-15.12V47h-8.694V4.16h16.632c10.08 0 15.12 4.704 15.12 14.112 0 5.586-2.1 9.702-6.3 12.348l6.11 16.38h-9.512l-4.977-14.364h-8.38zm12.663-9.325c1.007-1.26 1.51-2.92 1.51-4.977 0-2.058-.534-3.696-1.606-4.914-1.07-1.217-2.614-1.826-4.63-1.826h-7.938v13.608h8.064c2.058 0 3.59-.63 4.6-1.89zM306.02 47V4.16h27.72v7.56h-19.026v10.017h15.246v7.434h-15.246v10.27h19.026V47h-27.72zm52.7-41.14c2.037 1.64 3.055 4.096 3.055 7.372s-.325 5.66-.976 7.15c-.65 1.492-2.026 3.024-4.126 4.6-2.1 1.575-3.423 2.782-3.97 3.622-.545.84-.818 1.764-.818 2.772v1.953h-6.74c-1.303-1.43-1.954-3.34-1.954-5.734 0-1.512 1.333-3.34 4-5.48 2.668-2.143 4.305-3.623 4.914-4.442.61-.82.914-1.817.914-2.993 0-2.477-1.785-3.716-5.355-3.716-2.52 0-5.103.252-7.75.756l-1.322.252-.44-6.363c3.61-1.47 7.433-2.206 11.465-2.206s7.066.82 9.103 2.457zm-14.963 36.266v-5.27h9.07v10.54h-9.07v-5.27zM26.49 32.024v-7.56h12.475v22.24c-6.006.965-10.878 1.448-14.616 1.448-6.68 0-11.267-1.785-13.767-5.355-2.5-3.57-3.748-9.24-3.748-17.01 0-7.77 1.302-13.377 3.906-16.82C13.346 5.52 17.777 3.8 24.035 3.8c3.906 0 8.127.44 12.663 1.323l2.268.44-.252 6.742c-5.04-.546-9.166-.82-12.38-.82-3.213 0-5.47.38-6.772 1.135-1.3.756-2.256 2.152-2.865 4.19-.61 2.036-.914 5.522-.914 10.457 0 4.936.61 8.39 1.828 10.364 1.218 1.975 3.738 2.962 7.56 2.962l5.23-.252v-8.316H26.49zm18.695 15.372V4.556h27.72v7.56H53.88v10.017h15.245v7.434H53.88v10.27h19.025v7.56h-27.72zm31.08 0l9.64-42.84h16.506l9.64 42.84h-8.694l-1.7-7.75H86.66l-1.7 7.75h-8.694zm16.38-35.658L88.3 32.088h11.717l-4.347-20.35h-3.024zm31.862 21.294v14.364h-8.694V4.556h16.632c10.08 0 15.12 4.704 15.12 14.112 0 5.586-2.1 9.702-6.3 12.348l6.11 16.38h-9.512l-4.977-14.364h-8.38zm12.663-9.324c1.008-1.26 1.512-2.92 1.512-4.977 0-2.057-.535-3.695-1.606-4.913-1.072-1.218-2.615-1.827-4.63-1.827h-7.94v13.608h8.065c2.06 0 3.592-.63 4.6-1.89zM179.7 11.36c-4.578 0-6.867 1.512-6.867 4.536 0 1.344.567 2.373 1.7 3.087 1.135.714 3.79 1.743 7.97 3.087s7.11 2.866 8.79 4.567c1.68 1.7 2.52 4.316 2.52 7.844 0 4.495-1.366 7.897-4.096 10.207-2.73 2.31-6.3 3.465-10.71 3.465-3.276 0-7.287-.504-12.033-1.512l-2.268-.44.882-6.742c5.628.756 9.933 1.134 12.915 1.134 4.452 0 6.678-1.848 6.678-5.544 0-1.344-.513-2.394-1.543-3.15-1.03-.756-3.076-1.575-6.142-2.457-4.872-1.385-8.305-3.034-10.3-4.945-1.996-1.91-2.993-4.567-2.993-7.97 0-4.283 1.302-7.475 3.906-9.575 2.604-2.1 6.174-3.15 10.71-3.15 3.108 0 7.056.42 11.844 1.26l2.268.44-.693 6.868c-5.922-.672-10.1-1.008-12.537-1.008zm46.288 35.343c-4.452.966-8.463 1.45-12.033 1.45-3.57 0-6.426-.442-8.568-1.324-2.142-.883-3.822-2.29-5.04-4.222-1.218-1.932-2.058-4.2-2.52-6.804-.462-2.604-.693-5.88-.693-9.828 0-8.274 1.165-14.038 3.497-17.294 2.332-3.255 6.626-4.882 12.884-4.882 3.612 0 7.79.567 12.537 1.7l-.25 6.93c-4.16-.63-7.613-.944-10.365-.944-2.75 0-4.714.367-5.89 1.102-1.176.735-2.047 2.132-2.614 4.19-.567 2.058-.85 5.565-.85 10.52 0 4.957.577 8.39 1.732 10.3 1.156 1.912 3.465 2.868 6.93 2.868 3.466 0 7.15-.294 11.057-.882l.188 7.12zm20.584 1.45c-6.51 0-11.098-1.775-13.766-5.325-2.667-3.55-4-9.103-4-16.663 0-7.56 1.333-13.177 4-16.853 2.668-3.675 7.256-5.512 13.766-5.512s11.098 1.837 13.765 5.512c2.668 3.676 4 9.293 4 16.853 0 7.56-1.332 13.114-4 16.663-2.667 3.55-7.255 5.324-13.765 5.324zm0-7.56c3.402 0 5.722-1.104 6.962-3.31 1.24-2.204 1.858-5.9 1.858-11.087 0-5.187-.63-8.956-1.89-11.308-1.26-2.352-3.57-3.528-6.93-3.528s-5.67 1.176-6.93 3.528c-1.26 2.352-1.89 6.12-1.89 11.308s.62 8.883 1.858 11.088c1.24 2.205 3.56 3.308 6.962 3.308zm31.054-7.56v14.363h-8.694V4.556h16.632c10.08 0 15.12 4.704 15.12 14.112 0 5.586-2.1 9.702-6.3 12.348l6.11 16.38h-9.512l-4.977-14.364h-8.38zm12.663-9.325c1.007-1.26 1.51-2.92 1.51-4.977 0-2.057-.534-3.695-1.606-4.913-1.07-1.218-2.614-1.827-4.63-1.827h-7.938v13.608h8.064c2.058 0 3.59-.63 4.6-1.89zm15.732 23.688V4.556h27.72v7.56h-19.026v10.017h15.246v7.434h-15.246v10.27h19.026v7.56h-27.72zm52.7-41.14c2.037 1.64 3.055 4.096 3.055 7.372s-.325 5.66-.976 7.15c-.65 1.49-2.026 3.024-4.126 4.6-2.1 1.574-3.423 2.782-3.97 3.622-.545.84-.818 1.764-.818 2.772v1.953h-6.74c-1.303-1.428-1.954-3.34-1.954-5.733 0-1.512 1.333-3.34 4-5.48 2.668-2.143 4.305-3.624 4.914-4.443.61-.82.914-1.817.914-2.993 0-2.478-1.785-3.717-5.355-3.717-2.52 0-5.103.252-7.75.756l-1.322.252-.44-6.363c3.61-1.47 7.433-2.205 11.465-2.205s7.066.82 9.103 2.457zm-14.963 35.87V47h9.07v-9.747h-9.07v4.873z" mask="url(#f)"/></g></g><g opacity=".828" style="mix-blend-mode:overlay" mask="url(#d)"><g transform="translate(-6 -2.6)"><mask id="h" fill="#fff"><use xlink:href="#g"/></mask><path fill="#FFF" d="M26.49 31.628v-7.56h12.475v22.24c-6.006.965-10.878 1.448-14.616 1.448-6.68 0-11.267-1.785-13.767-5.355-2.5-3.57-3.748-9.24-3.748-17.01 0-7.77 1.302-13.376 3.906-16.82 2.605-3.444 7.036-5.166 13.294-5.166 3.906 0 8.127.44 12.663 1.323l2.268.44-.252 6.742c-5.04-.547-9.166-.82-12.38-.82-3.213 0-5.47.378-6.772 1.134-1.3.756-2.256 2.152-2.865 4.19-.61 2.037-.914 5.522-.914 10.457 0 4.937.61 8.39 1.828 10.365 1.218 1.974 3.738 2.96 7.56 2.96l5.23-.25v-8.317H26.49zM45.186 47V4.16h27.72v7.56H53.88v10.017h15.245v7.434H53.88v10.27h19.025V47h-27.72zm31.08 0l9.64-42.84h16.506L112.05 47h-8.694l-1.7-7.75H86.66L84.96 47h-8.694zm16.38-35.658L88.3 31.692h11.717L95.67 11.34h-3.024zm31.862 21.294V47h-8.694V4.16h16.632c10.08 0 15.12 4.704 15.12 14.112 0 5.586-2.1 9.702-6.3 12.348l6.11 16.38h-9.512l-4.977-14.364h-8.38zm12.663-9.324c1.008-1.26 1.512-2.92 1.512-4.977 0-2.058-.535-3.696-1.606-4.914-1.072-1.217-2.615-1.826-4.63-1.826h-7.94v13.608h8.065c2.06 0 3.592-.63 4.6-1.89zm42.53-12.348c-4.578 0-6.867 1.512-6.867 4.536 0 1.344.567 2.373 1.7 3.087 1.135.714 3.79 1.743 7.97 3.087s7.11 2.866 8.79 4.567c1.68 1.703 2.52 4.317 2.52 7.845 0 4.494-1.366 7.896-4.096 10.206-2.73 2.31-6.3 3.466-10.71 3.466-3.276 0-7.287-.504-12.033-1.512l-2.268-.44.882-6.742c5.628.756 9.933 1.134 12.915 1.134 4.452 0 6.678-1.848 6.678-5.544 0-1.344-.513-2.394-1.543-3.15-1.03-.756-3.076-1.575-6.142-2.457-4.872-1.386-8.305-3.034-10.3-4.946-1.996-1.912-2.993-4.568-2.993-7.97 0-4.284 1.302-7.476 3.906-9.576 2.604-2.1 6.174-3.15 10.71-3.15 3.108 0 7.056.42 11.844 1.26l2.268.44-.693 6.868c-5.922-.672-10.1-1.008-12.537-1.008zm46.288 35.343c-4.452.966-8.463 1.45-12.033 1.45-3.57 0-6.426-.442-8.568-1.324-2.142-.882-3.822-2.29-5.04-4.22-1.218-1.933-2.058-4.2-2.52-6.805-.462-2.604-.693-5.88-.693-9.828 0-8.274 1.165-14.038 3.497-17.293 2.332-3.256 6.626-4.883 12.884-4.883 3.612 0 7.79.567 12.537 1.7l-.25 6.93c-4.16-.63-7.613-.944-10.365-.944-2.75 0-4.714.367-5.89 1.103-1.176.735-2.047 2.13-2.614 4.19-.567 2.057-.85 5.564-.85 10.52 0 4.956.577 8.39 1.732 10.3 1.156 1.912 3.465 2.867 6.93 2.867 3.466 0 7.15-.294 11.057-.882l.188 7.12zm20.584-6.11c3.402 0 5.722-1.103 6.962-3.31 1.24-2.204 1.858-5.9 1.858-11.087 0-5.187-.63-8.956-1.89-11.308-1.26-2.352-3.57-3.528-6.93-3.528s-5.67 1.176-6.93 3.528c-1.26 2.352-1.89 6.12-1.89 11.308s.62 8.883 1.858 11.088c1.24 2.206 3.56 3.308 6.962 3.308zm0 7.56c-6.51 0-11.098-1.775-13.766-5.325-2.667-3.55-4-9.103-4-16.663 0-7.56 1.333-13.178 4-16.854 2.668-3.675 7.256-5.512 13.766-5.512s11.098 1.837 13.765 5.512c2.668 3.676 4 9.293 4 16.853 0 7.56-1.332 13.113-4 16.662-2.667 3.55-7.255 5.324-13.765 5.324zm31.054-15.12V47h-8.694V4.16h16.632c10.08 0 15.12 4.704 15.12 14.112 0 5.586-2.1 9.702-6.3 12.348l6.11 16.38h-9.512l-4.977-14.364h-8.38zm12.663-9.325c1.007-1.26 1.51-2.92 1.51-4.977 0-2.058-.534-3.696-1.606-4.914-1.07-1.217-2.614-1.826-4.63-1.826h-7.938v13.608h8.064c2.058 0 3.59-.63 4.6-1.89zM306.02 47V4.16h27.72v7.56h-19.026v10.017h15.246v7.434h-15.246v10.27h19.026V47h-27.72zm52.7-41.14c2.037 1.64 3.055 4.096 3.055 7.372s-.325 5.66-.976 7.15c-.65 1.492-2.026 3.024-4.126 4.6-2.1 1.575-3.423 2.782-3.97 3.622-.545.84-.818 1.764-.818 2.772v1.953h-6.74c-1.303-1.43-1.954-3.34-1.954-5.734 0-1.512 1.333-3.34 4-5.48 2.668-2.143 4.305-3.623 4.914-4.442.61-.82.914-1.817.914-2.993 0-2.477-1.785-3.716-5.355-3.716-2.52 0-5.103.252-7.75.756l-1.322.252-.44-6.363c3.61-1.47 7.433-2.206 11.465-2.206s7.066.82 9.103 2.457zm-14.963 36.266v-5.27h9.07v10.54h-9.07v-5.27zM26.49 32.024v-7.56h12.475v22.24c-6.006.965-10.878 1.448-14.616 1.448-6.68 0-11.267-1.785-13.767-5.355-2.5-3.57-3.748-9.24-3.748-17.01 0-7.77 1.302-13.377 3.906-16.82C13.346 5.52 17.777 3.8 24.035 3.8c3.906 0 8.127.44 12.663 1.323l2.268.44-.252 6.742c-5.04-.546-9.166-.82-12.38-.82-3.213 0-5.47.38-6.772 1.135-1.3.756-2.256 2.152-2.865 4.19-.61 2.036-.914 5.522-.914 10.457 0 4.936.61 8.39 1.828 10.364 1.218 1.975 3.738 2.962 7.56 2.962l5.23-.252v-8.316H26.49zm18.695 15.372V4.556h27.72v7.56H53.88v10.017h15.245v7.434H53.88v10.27h19.025v7.56h-27.72zm31.08 0l9.64-42.84h16.506l9.64 42.84h-8.694l-1.7-7.75H86.66l-1.7 7.75h-8.694zm16.38-35.658L88.3 32.088h11.717l-4.347-20.35h-3.024zm31.862 21.294v14.364h-8.694V4.556h16.632c10.08 0 15.12 4.704 15.12 14.112 0 5.586-2.1 9.702-6.3 12.348l6.11 16.38h-9.512l-4.977-14.364h-8.38zm12.663-9.324c1.008-1.26 1.512-2.92 1.512-4.977 0-2.057-.535-3.695-1.606-4.913-1.072-1.218-2.615-1.827-4.63-1.827h-7.94v13.608h8.065c2.06 0 3.592-.63 4.6-1.89zM179.7 11.36c-4.578 0-6.867 1.512-6.867 4.536 0 1.344.567 2.373 1.7 3.087 1.135.714 3.79 1.743 7.97 3.087s7.11 2.866 8.79 4.567c1.68 1.7 2.52 4.316 2.52 7.844 0 4.495-1.366 7.897-4.096 10.207-2.73 2.31-6.3 3.465-10.71 3.465-3.276 0-7.287-.504-12.033-1.512l-2.268-.44.882-6.742c5.628.756 9.933 1.134 12.915 1.134 4.452 0 6.678-1.848 6.678-5.544 0-1.344-.513-2.394-1.543-3.15-1.03-.756-3.076-1.575-6.142-2.457-4.872-1.385-8.305-3.034-10.3-4.945-1.996-1.91-2.993-4.567-2.993-7.97 0-4.283 1.302-7.475 3.906-9.575 2.604-2.1 6.174-3.15 10.71-3.15 3.108 0 7.056.42 11.844 1.26l2.268.44-.693 6.868c-5.922-.672-10.1-1.008-12.537-1.008zm46.288 35.343c-4.452.966-8.463 1.45-12.033 1.45-3.57 0-6.426-.442-8.568-1.324-2.142-.883-3.822-2.29-5.04-4.222-1.218-1.932-2.058-4.2-2.52-6.804-.462-2.604-.693-5.88-.693-9.828 0-8.274 1.165-14.038 3.497-17.294 2.332-3.255 6.626-4.882 12.884-4.882 3.612 0 7.79.567 12.537 1.7l-.25 6.93c-4.16-.63-7.613-.944-10.365-.944-2.75 0-4.714.367-5.89 1.102-1.176.735-2.047 2.132-2.614 4.19-.567 2.058-.85 5.565-.85 10.52 0 4.957.577 8.39 1.732 10.3 1.156 1.912 3.465 2.868 6.93 2.868 3.466 0 7.15-.294 11.057-.882l.188 7.12zm20.584 1.45c-6.51 0-11.098-1.775-13.766-5.325-2.667-3.55-4-9.103-4-16.663 0-7.56 1.333-13.177 4-16.853 2.668-3.675 7.256-5.512 13.766-5.512s11.098 1.837 13.765 5.512c2.668 3.676 4 9.293 4 16.853 0 7.56-1.332 13.114-4 16.663-2.667 3.55-7.255 5.324-13.765 5.324zm0-7.56c3.402 0 5.722-1.104 6.962-3.31 1.24-2.204 1.858-5.9 1.858-11.087 0-5.187-.63-8.956-1.89-11.308-1.26-2.352-3.57-3.528-6.93-3.528s-5.67 1.176-6.93 3.528c-1.26 2.352-1.89 6.12-1.89 11.308s.62 8.883 1.858 11.088c1.24 2.205 3.56 3.308 6.962 3.308zm31.054-7.56v14.363h-8.694V4.556h16.632c10.08 0 15.12 4.704 15.12 14.112 0 5.586-2.1 9.702-6.3 12.348l6.11 16.38h-9.512l-4.977-14.364h-8.38zm12.663-9.325c1.007-1.26 1.51-2.92 1.51-4.977 0-2.057-.534-3.695-1.606-4.913-1.07-1.218-2.614-1.827-4.63-1.827h-7.938v13.608h8.064c2.058 0 3.59-.63 4.6-1.89zm15.732 23.688V4.556h27.72v7.56h-19.026v10.017h15.246v7.434h-15.246v10.27h19.026v7.56h-27.72zm52.7-41.14c2.037 1.64 3.055 4.096 3.055 7.372s-.325 5.66-.976 7.15c-.65 1.49-2.026 3.024-4.126 4.6-2.1 1.574-3.423 2.782-3.97 3.622-.545.84-.818 1.764-.818 2.772v1.953h-6.74c-1.303-1.428-1.954-3.34-1.954-5.733 0-1.512 1.333-3.34 4-5.48 2.668-2.143 4.305-3.624 4.914-4.443.61-.82.914-1.817.914-2.993 0-2.478-1.785-3.717-5.355-3.717-2.52 0-5.103.252-7.75.756l-1.322.252-.44-6.363c3.61-1.47 7.433-2.205 11.465-2.205s7.066.82 9.103 2.457zm-14.963 35.87V47h9.07v-9.747h-9.07v4.873z" mask="url(#h)"/></g></g></g><g transform="translate(1 1)"><g><mask id="k" fill="#fff"><use xlink:href="#i"/></mask><use fill="#BA2000" xlink:href="#i"/><path fill="url(#j)" fill-opacity=".66" d="M-2 0h168v46H-2z" style="mix-blend-mode:soft-light" mask="url(#k)"/></g><use stroke="#FCD7B8" stroke-width="2.3" mask="url(#l)" xlink:href="#a"/></g></g></g></svg>